<svg id="Capa_1" enable-background="new 0 0 512 512" height="512" viewBox="0 0 512 512" width="512" xmlns="http://www.w3.org/2000/svg" xmlns:xlink="http://www.w3.org/1999/xlink"><linearGradient id="SVGID_1_" gradientUnits="userSpaceOnUse" x1="256" x2="256" y1="469.75" y2="42.25"><stop offset="0" stop-color="#00b59c"/><stop offset="1" stop-color="#9cffac"/></linearGradient><linearGradient id="SVGID_2_" gradientUnits="userSpaceOnUse" x1="256" x2="256" y1="364.75" y2="229.75"><stop offset="0" stop-color="#9bff9d"/><stop offset=".9973" stop-color="#e2ffea"/><stop offset="1" stop-color="#e2ffea"/></linearGradient><g><g><g><path d="m105.54 271.586c51.973-7.852 102.598-11.836 150.469-11.836 48.926 0 101.221 4.189 151.26 12.114.791.132 1.553.19 2.344.19 4.336 0 8.496-1.875 11.367-5.215 30.527-35.435 44.736-68.481 44.736-103.989 0-68.76-48.252-120.601-112.207-120.601-32.725 0-66.211 14.604-97.5 42.393-31.289-27.788-64.775-42.393-97.5-42.393-63.955 0-112.207 51.841-112.207 120.601 0 35.552 14.092 67.559 45.703 103.755 3.369 3.853 8.496 5.64 13.535 4.981zm150.468 63.164-256.008 30v90c0 8.291 6.709 15 15 15s15-6.709 15-15v-15h452v15c0 8.291 6.709 15 15 15s15-6.709 15-15c0-11.007 0-80.336 0-90z" fill="url(#SVGID_1_)"/></g></g><g><g><path d="m450.408 248.95c-11.1-2.1-24.302-4.501-38.401-6.601-51.599-8.399-105.601-12.599-155.999-12.599-49.501 0-101.4 4.2-155.098 12.299-14.7 2.401-27.902 4.801-39.602 6.901-34.8 7.2-61.308 38.099-61.308 73.799v42.001h512v-42.001c0-35.7-26.491-66.599-61.592-73.799z" fill="url(#SVGID_2_)"/></g></g></g></svg>