<svg id="Capa_1" enable-background="new 0 0 512 512" height="512" viewBox="0 0 512 512" width="512" xmlns="http://www.w3.org/2000/svg" xmlns:xlink="http://www.w3.org/1999/xlink"><linearGradient id="SVGID_1_" gradientUnits="userSpaceOnUse" x1="256" x2="256" y1="512" y2="0"><stop offset="0" stop-color="#c3ffe8"/><stop offset=".9973" stop-color="#f0fff4"/></linearGradient><linearGradient id="SVGID_2_" gradientUnits="userSpaceOnUse" x1="256" x2="256" y1="382.5" y2="129.5"><stop offset="0" stop-color="#9cffac"/><stop offset="1" stop-color="#00b59c"/></linearGradient><g><g><circle cx="256" cy="256" fill="url(#SVGID_1_)" r="256"/></g><g><g><path d="m105 373.623c0 4.907 3.973 8.877 8.882 8.877 4.91 0 8.882-3.97 8.882-8.877v-8.877h266.471v8.877c0 4.907 3.973 8.877 8.882 8.877 4.91 0 8.882-3.97 8.882-8.877v-44.386h-301.999zm56.209-143.448c32.823-4.967 64.64-7.464 94.791-7.464 30.793 0 63.686 2.635 95.121 7.612 7.706 1.137 14.901 2.461 21.331 3.666 5.069-10.913 7.728-21.806 7.728-33.115 0-40.693-28.573-71.373-66.444-71.373-19.378 0-39.207 8.643-57.735 25.088-18.528-16.445-38.357-25.088-57.735-25.088-37.871 0-66.444 30.68-66.444 71.373 0 11.396 2.697 22.192 7.915 33.085 6.655-1.216 13.733-2.495 21.472-3.784zm209.949 21.629c-6.679-1.257-14.417-2.705-22.813-3.944-30.533-4.837-62.471-7.395-92.345-7.395-29.249 0-60.112 2.419-91.877 7.221-8.587 1.43-16.446 2.861-23.386 4.135-20.713 4.179-35.737 22.549-35.737 43.684v15.977h302v-15.977c0-21.135-15.024-39.505-35.842-43.701z" fill="url(#SVGID_2_)"/></g></g></g></svg>